HIERARCHY
ROOT RootJoint
{
    OFFSET   0.000000   0.000000   0.000000
    CHANNELS 6 Xposition Yposition Zposition Xrotation Yrotation Zrotation
    JOINT pelvis_lowerback
    {
        OFFSET   0.000000   0.093605   0.000000
        CHANNELS 3 Xrotation Yrotation Zrotation
        JOINT lowerback_torso
        {
            OFFSET   0.000000   0.100000   0.000000
            CHANNELS 3 Xrotation Yrotation Zrotation
            JOINT torso_head
            {
                OFFSET   0.000000   0.282350   0.000000
                CHANNELS 3 Xrotation Yrotation Zrotation
                End Site
                {
                    OFFSET   0.000000   0.192650   0.000000
                }
            }
            JOINT rTorso_Clavicle
            {
                OFFSET  -0.001000   0.157500   0.000000
                CHANNELS 3 Xrotation Yrotation Zrotation
                JOINT rShoulder
                {
                    OFFSET  -0.117647   0.000000   0.000000
                    CHANNELS 3 Xrotation Yrotation Zrotation
                    JOINT rElbow
                    {
                        OFFSET  -0.245000   0.000000   0.000000
                        CHANNELS 3 Xrotation Yrotation Zrotation
                        JOINT rWrist
                        {
                            OFFSET  -0.240000   0.000000   0.000000
                            CHANNELS 3 Xrotation Yrotation Zrotation
                            End Site
                            {
                                OFFSET  -0.116353  -0.002500   0.000000
                            }
                        }
                    }
                }
            }
            JOINT lTorso_Clavicle
            {
                OFFSET   0.001000   0.157500   0.000000
                CHANNELS 3 Xrotation Yrotation Zrotation
                JOINT lShoulder
                {
                    OFFSET   0.117647   0.000000   0.000000
                    CHANNELS 3 Xrotation Yrotation Zrotation
                    JOINT lElbow
                    {
                        OFFSET   0.245000   0.000000   0.000000
                        CHANNELS 3 Xrotation Yrotation Zrotation
                        JOINT lWrist
                        {
                            OFFSET   0.240000   0.000000   0.000000
                            CHANNELS 3 Xrotation Yrotation Zrotation
                            End Site
                            {
                                OFFSET   0.116353  -0.002500   0.000000
                            }
                        }
                    }
                }
            }
        }
    }
    JOINT rHip
    {
        OFFSET  -0.100000  -0.051395   0.000000
        CHANNELS 3 Xrotation Yrotation Zrotation
        JOINT rKnee
        {
            OFFSET   0.000000  -0.410000   0.000000
            CHANNELS 3 Xrotation Yrotation Zrotation
            JOINT rAnkle
            {
                OFFSET   0.000000  -0.390000   0.000000
                CHANNELS 3 Xrotation Yrotation Zrotation
                JOINT rToeJoint
                {
                    OFFSET   0.000000  -0.050000   0.130000
                    CHANNELS 3 Xrotation Yrotation Zrotation
                    End Site
                    {
                        OFFSET  -0.010000   0.002000   0.060000
                    }
                }
            }
        }
    }
    JOINT lHip
    {
        OFFSET   0.100000  -0.051395   0.000000
        CHANNELS 3 Xrotation Yrotation Zrotation
        JOINT lKnee
        {
            OFFSET   0.000000  -0.410000   0.000000
            CHANNELS 3 Xrotation Yrotation Zrotation
            JOINT lAnkle
            {
                OFFSET   0.000000  -0.390000   0.000000
                CHANNELS 3 Xrotation Yrotation Zrotation
                JOINT lToeJoint
                {
                    OFFSET   0.000000  -0.050000   0.130000
                    CHANNELS 3 Xrotation Yrotation Zrotation
                    End Site
                    {
                        OFFSET   0.010000   0.002000   0.060000
                    }
                }
            }
        }
    }
}
MOTION
Frames: 5
Frame Time:   0.008333
 -2.725886   0.910065   4.266623  -7.318401  14.945078  -1.055625   3.886462   0.653128  -0.645735   3.903766  -0.412429   4.153009  -4.446340  -1.012076   2.905373   2.691734   3.946035  26.657012  10.454560  10.098953  25.006212  -0.010172  12.374075   0.006594  12.934027   2.112718   1.319874   3.986025  -0.495001 -22.677067   1.513042  -1.623706 -30.375081  -0.009761 -25.594563   0.001977   9.637361  -2.761114   3.801217   4.831809  -1.647997  -2.604168   9.340699  -0.000015  -0.000127  -6.038615  -4.563035   5.735051  -0.817933  -0.000002  -0.000001   9.652974   1.584064  12.717719   9.142427   0.000057  -0.000182 -10.587561   5.203175  -0.962778  -1.013593   0.000001  -0.000017
 -2.725612   0.910128   4.267365  -7.317537  15.018300  -1.023401   3.764455   0.662616  -0.647207   3.989005  -0.392845   4.149882  -4.531953  -0.963725   2.928478   2.763794   3.835127  26.782433  10.817925  10.060206  25.398947  -0.009970  12.055051   0.006171  12.975672   2.116903   1.424938   4.084436  -0.359523 -22.823719   1.784473  -1.441362 -30.691594  -0.011107 -24.780515   0.001705   9.613240  -2.782589   3.764616   4.957718  -1.653219  -2.626038   9.222133  -0.000024  -0.000180  -6.038869  -4.612809   5.707448  -0.825571  -0.000004  -0.000003   9.819876   1.561038  12.694538   8.876133   0.000042  -0.000184 -10.471307   5.166513  -1.020923  -1.052631  -0.000018  -0.000007
 -2.725285   0.910198   4.268123  -7.308743  15.097602  -0.986397   3.637261   0.666934  -0.650724   4.064238  -0.377309   4.141153  -4.621697  -0.919146   2.950163   2.850373   3.715555  26.911789  11.164691  10.013682  25.783691  -0.009684  11.752251   0.005723  13.013451   2.109793   1.556857   4.202720  -0.215838 -22.979312   2.056297  -1.249875 -31.005407  -0.012076 -24.002967   0.001519   9.584018  -2.710172   3.677653   5.080925  -1.655746  -2.656267   9.098671  -0.000036  -0.000235  -6.039613  -4.657295   5.680290  -0.833751  -0.000006  -0.000005   9.977852   1.537802  12.661623   8.610317   0.000018  -0.000201 -10.349505   5.128643  -1.075279  -1.099857  -0.000037  -0.000001
 -2.724928   0.910260   4.268854  -7.299532  15.180265  -0.948861   3.516736   0.672273  -0.654156   4.137969  -0.361296   4.130822  -4.708749  -0.877955   2.970541   2.942081   3.594999  27.040384  11.492756   9.964892  26.151253  -0.009302  11.466535   0.005297  13.049400   2.091356   1.705784   4.327194  -0.070824 -23.137287   2.319203  -1.061457 -31.309020  -0.012612 -23.271417   0.001404   9.553513  -2.601221   3.564825   5.199794  -1.658883  -2.688820   8.981616  -0.000046  -0.000277  -6.042542  -4.700290   5.653349  -0.842373  -0.000007  -0.000007  10.125580   1.515070  12.626229   8.359776  -0.000008  -0.000225 -10.235909   5.091136  -1.126663  -1.143020  -0.000050   0.000001
 -2.724555   0.910312   4.269543  -7.290606  15.263459  -0.912731   3.405499   0.680335  -0.657488   4.211695  -0.343506   4.120086  -4.790791  -0.839577   2.989778   3.033689   3.477693  27.165262  11.801412   9.917269  26.499185  -0.008835  11.198141   0.004899  13.083933   2.066307   1.861887   4.451716   0.071307 -23.292713   2.570118  -0.880468 -31.599153  -0.012767 -22.585651   0.001326   9.523281  -2.479041   3.440410   5.312517  -1.662836  -2.721621   8.872406  -0.000055  -0.000304  -6.046683  -4.741770   5.627251  -0.851178  -0.000008  -0.000010  10.263639   1.491402  12.591092   8.124867  -0.000032  -0.000242 -10.132709   5.052894  -1.175176  -1.179174  -0.000057   0.000003
